<svg width="66" height="66" viewBox="0 0 66 66" fill="none" xmlns="http://www.w3.org/2000/svg">
<path d="M35.9606 60.3236C36.1127 62.0299 34.8509 63.5527 33.138 63.5338C27.8199 63.475 22.5872 62.049 17.9532 59.3691C12.4211 56.1698 8.0122 51.3397 5.32951 45.5394C2.64683 39.7391 1.82131 33.2518 2.96583 26.9645C4.11035 20.6772 7.16904 14.8969 11.7236 10.414C16.2782 5.93116 22.1064 2.96462 28.411 1.92007C34.7157 0.875508 41.1892 1.80392 46.9462 4.57836C52.7031 7.35279 57.4626 11.8378 60.5736 17.42C63.1796 22.096 64.5224 27.3507 64.4967 32.669C64.4885 34.382 62.9458 35.6195 61.2422 35.4403C59.5386 35.261 58.3233 33.7314 58.2888 32.0188C58.2072 27.9766 57.1385 23.9987 55.1551 20.4399C52.6662 15.9741 48.8587 12.3861 44.2531 10.1665C39.6475 7.947 34.4687 7.20426 29.425 8.03991C24.3812 8.87556 19.7187 11.2488 16.075 14.8351C12.4314 18.4213 9.98442 23.0456 9.0688 28.0754C8.15319 33.1053 8.81361 38.2952 10.9598 42.9354C13.1059 47.5757 16.633 51.4397 21.0587 53.9991C24.5856 56.0388 28.546 57.1706 32.5864 57.3163C34.2983 57.378 35.8084 58.6174 35.9606 60.3236Z" fill="white"/>
<path d="M29.6908 16.1959C29.3577 14.6163 30.3708 13.0422 31.9825 12.9489C35.1535 12.7654 38.3371 13.3592 41.2497 14.6984C45.0523 16.4469 48.1909 19.373 50.2011 23.0438C52.2113 26.7147 52.9864 30.9351 52.4116 35.0807C51.8368 39.2262 49.9426 43.0766 47.0095 46.062C44.0763 49.0474 40.26 51.0092 36.1252 51.6571C31.9904 52.305 27.7569 51.6045 24.0512 49.6594C20.3455 47.7142 17.3644 44.6277 15.5491 40.8567C14.1587 37.9681 13.5088 34.7955 13.6363 31.6218C13.7011 30.0086 15.2571 28.968 16.8424 29.2731C18.4277 29.5783 19.432 31.1193 19.4709 32.7333C19.5174 34.6593 19.9717 36.5651 20.8169 38.3209C22.0876 40.9607 24.1744 43.1212 26.7684 44.4828C29.3624 45.8444 32.3258 46.3347 35.2202 45.8812C38.1145 45.4277 40.7859 44.0544 42.8392 41.9647C44.8924 39.8749 46.2183 37.1796 46.6206 34.2777C47.023 31.3759 46.4805 28.4215 45.0733 25.8519C43.6661 23.2824 41.4691 21.2341 38.8074 20.0102C37.0369 19.1961 35.1234 18.7755 33.1968 18.763C31.5824 18.7525 30.0239 17.7756 29.6908 16.1959Z" fill="white"/>
</svg>
